<?xml version="1.0" encoding="UTF-8"?>
<svg id="Camada_2" data-name="Camada 2" xmlns="http://www.w3.org/2000/svg" viewBox="0 0 1065.96 372.67">
  <defs>
    <style>
      .cls-1 {
        fill: #272922;
        stroke-width: 0px;
      }
    </style>
  </defs>
  <g id="Camada_1-2" data-name="Camada 1">
    <g>
      <path class="cls-1"
        d="M311.7,131.5c0-10.68-8.66-19.34-19.34-19.34-2.87,0-5.59.64-8.04,1.77L173.36,23.64c.31-1.38.5-2.82.5-4.3,0-10.68-8.66-19.34-19.34-19.34s-19.34,8.66-19.34,19.34c0,1.54.2,3.04.54,4.48L27.22,113.84c-2.41-1.08-5.07-1.69-7.87-1.69-10.68,0-19.34,8.66-19.34,19.34,0,7.6,4.4,14.17,10.78,17.33v75.02c-6.38,3.16-10.78,9.72-10.78,17.33,0,10.68,8.66,19.34,19.34,19.34,2.86,0,5.56-.64,8-1.75l110.46,90.23c-.32,1.4-.5,2.84-.5,4.33,0,10.68,8.66,19.34,19.34,19.34s19.34-8.66,19.34-19.34c0-1.53-.2-3.01-.53-4.44l108.98-90.07c2.42,1.08,5.09,1.7,7.91,1.7,10.68,0,19.34-8.66,19.34-19.34,0-7.61-4.4-14.17-10.78-17.33v-75.01c6.38-3.16,10.78-9.72,10.78-17.33ZM273.54,135.94l-48.1,39.75-52.09-42.38c.31-1.38.5-2.82.5-4.3,0-7.61-4.4-14.17-10.78-17.33V37.35l110.43,89.85c-.31,1.38-.5,2.82-.5,4.3s.2,3.01.53,4.44ZM164.56,226.02c-2.42-1.08-5.09-1.7-7.91-1.7s-5.56.64-8.01,1.75l-49.23-40.21,47.22-39.18c2.41,1.08,5.07,1.69,7.87,1.69s5.59-.64,8.04-1.77l49.44,40.22-47.43,39.2ZM145.95,111.69c-6.38,3.16-10.78,9.72-10.78,17.33,0,1.54.2,3.04.54,4.48l-49.8,41.33-47.72-38.98c.32-1.4.5-2.84.5-4.33s-.2-3.04-.54-4.48l107.8-89.45v74.11ZM72.48,185.96l-44.57,36.98v-73.39l44.57,36.41ZM38.15,236.69l47.84-39.7,51.82,42.33c-.32,1.4-.5,2.84-.5,4.33,0,7.6,4.4,14.17,10.78,17.33v74.29l-109.91-89.78c.32-1.4.5-2.84.5-4.33s-.2-3.04-.54-4.48ZM165.21,260.98c6.38-3.16,10.78-9.72,10.78-17.33,0-1.53-.2-3.01-.53-4.44l50.07-41.38,47.97,39.03c-.31,1.38-.5,2.82-.5,4.3s.2,3.01.53,4.44l-108.33,89.54v-74.16ZM238.99,186.71l44.8-37.03v73.48l-44.8-36.45Z" />
      <path class="cls-1"
        d="M821.67,192.26c7.09.62,15.97,5,15.97,12.86,0,8.9-10.38,11.33-17.66,11.33h-27.24v-24.19h-17.53v40.77h44.76c19.55,0,35.32-6.74,35.32-27.78,0-3.34-1.28-8.51-4.37-12.99h-29.27Z" />
      <path class="cls-1"
        d="M792.74,154.83h27.24c11.33,0,14.83,7.28,14.83,11.6,0,5.26-3.49,9.87-14.05,10.09h28.78c2.03-3.18,2.94-6.8,2.94-10.5,0-19.01-13.89-27.37-32.49-27.37h-44.76v37.87h17.53v-21.69Z" />
      <path class="cls-1"
        d="M913.68,152.94c17.55,0,26.79,11.08,29.78,23.57h17.84c-3.58-21.04-19.47-39.75-47.62-39.75s-43.92,18.66-47.65,39.75h17.73c3.02-12.48,12.42-23.57,29.92-23.57Z" />
      <path class="cls-1"
        d="M913.68,218.87c-19.63,0-28.45-12.92-30.52-26.61h-17.72c2.21,22.62,17.65,42.93,48.25,42.93s45.6-20.63,48.04-42.93h-17.62c-2.02,13.67-10.84,26.61-30.42,26.61Z" />
      <polygon class="cls-1"
        points="1027.26 176.52 1053.09 139.46 1053.09 138.65 1033.54 138.65 1009.94 173.84 986.35 138.65 966.8 138.65 966.8 139.46 992.52 176.52 1027.26 176.52" />
      <polygon class="cls-1"
        points="993.78 192.26 965.85 232.49 965.85 233.03 985.81 233.03 1009.94 197.57 1034.08 233.03 1054.03 233.03 1054.03 232.49 1025.98 192.26 993.78 192.26" />
      <polygon class="cls-1"
        points="1035.22 189.62 1035.22 192.08 1042.54 192.08 1042.54 189.62 1040.41 189.62 1040.41 176.69 1035.14 176.69 1035.14 179.33 1037.53 179.33 1037.53 189.62 1035.22 189.62" />
      <path class="cls-1"
        d="M1043.8,183.26v2.22c0,9.19,13.5,9.17,13.5,0v-2.22c0-9.17-13.5-9.19-13.5,0ZM1054.42,185.48c0,5.59-7.74,5.59-7.74,0v-2.22c0-5.56,7.74-5.5,7.74,0v2.22Z" />
      <polygon class="cls-1"
        points="1063.82 189.62 1063.82 176.69 1058.55 176.69 1058.55 179.33 1060.94 179.33 1060.94 189.62 1058.63 189.62 1058.63 192.08 1065.96 192.08 1065.96 189.62 1063.82 189.62" />
      <path class="cls-1"
        d="M403.97,182.35c-15.92-2.97-28.87-5.8-28.87-17.8,0-15.11,17.54-19.16,28.6-19.16,10.65.13,21.72,1.75,28.59,12.82l5.94-3.51c-9.31-13.89-21.05-16.05-34.53-16.05-15.51,0-36.29,6.2-35.88,26.17,0,17.4,17.67,20.91,34.94,24.28,15.51,2.97,31.16,6.07,31.02,20.23,0,16.73-18.48,19.97-30.08,19.97s-26.44-5.67-32.24-17.13l-6.47,3.24c7.28,14.43,24.01,20.5,38.71,20.5,15.78,0,37.23-5.13,37.36-26.44,0-20.37-18.88-23.61-37.09-27.11Z" />
      <path class="cls-1"
        d="M484.23,229.3c-10.39,0-12.28-6.34-12.28-15.38v-40.6h22.66v-5.53h-22.66v-20.1l-6.47.68v19.42h-14.16v5.53h14.16v40.6c0,13.08,4.58,21.45,18.75,21.45,4.18,0,8.36-1.35,12.54-3.37l-2.29-5.4c-3.37,1.62-7.01,2.7-10.25,2.7Z" />
      <path class="cls-1"
        d="M563.42,204.75c0,13.76-9.58,24.15-23.33,24.28-14.43.13-23.74-7.96-23.74-23.07v-38.31h-6.61v38.44c0,18.48,12.27,29.41,30.08,29.41,9.31-.13,18.62-3.91,23.74-13.08v12h6.47v-66.77h-6.61v37.09Z" />
      <path class="cls-1"
        d="M644.9,182.35c-5.4-10.79-16.19-15.64-27.65-15.64-18.62,0-33.45,12.41-33.45,34.39s14.7,34.4,33.32,34.4c11.33,0,22.26-5.67,27.79-15.78v14.7h6.47v-94.42h-6.47v42.35ZM617.52,229.03c-14.97,0-27.25-9.44-27.25-27.92s12.28-28.06,27.25-28.06,27.25,11.33,27.25,27.92-11.6,28.06-27.25,28.06Z" />
      <rect class="cls-1" x="670.4" y="167.52" width="6.61" height="66.9" />
      <path class="cls-1" d="M668.51,146.07c0,7.01,10.66,7.01,10.66,0s-10.66-7.01-10.66,0Z" />
      <path class="cls-1"
        d="M728.13,166.57c-18.75,0-33.86,13.49-33.86,34.67s15.11,34.13,33.86,34.13,33.86-12.95,33.86-34.13-15.11-34.67-33.86-34.67ZM728.13,228.89c-15.11,0-27.38-10.39-27.38-27.65s12.28-28.46,27.38-28.46,27.38,11.2,27.38,28.46-12.28,27.65-27.38,27.65Z" />
    </g>
  </g>
</svg>